<svg xmlns="http://www.w3.org/2000/svg" viewBox="0 0 64 64" fill="none">
  <rect width="64" height="64" rx="14" fill="#114552"/>
  <!-- Compass rose – 8 points -->
  <!-- N (top, wide) -->
  <polygon points="32,4 36,26 28,26" fill="white"/>
  <!-- S (bottom, wide) -->
  <polygon points="32,60 36,38 28,38" fill="white" opacity=".7"/>
  <!-- E (right, wide) -->
  <polygon points="60,32 38,28 38,36" fill="white" opacity=".7"/>
  <!-- W (left, wide) -->
  <polygon points="4,32 26,28 26,36" fill="white" opacity=".7"/>
  <!-- NE -->
  <polygon points="56,8 38,28 34,24" fill="white" opacity=".55"/>
  <!-- SW -->
  <polygon points="8,56 26,36 30,40" fill="white" opacity=".55"/>
  <!-- NW -->
  <polygon points="8,8 30,28 26,24" fill="white" opacity=".55"/>
  <!-- SE -->
  <polygon points="56,56 34,36 38,40" fill="white" opacity=".55"/>

  <!-- Center ring -->
  <circle cx="32" cy="32" r="7" fill="white" opacity=".15"/>
  <circle cx="32" cy="32" r="7" stroke="white" stroke-width="1.5"/>

  <!-- Paperclip in center -->
  <path d="M30 29 C30 27.3 31.3 26 33 26 C34.7 26 36 27.3 36 29 L36 35 C36 37.8 33.8 40 31 40 C28.2 40 26 37.8 26 35 L26 29"
    stroke="white" stroke-width="1.6" stroke-linecap="round" fill="none"/>
  <path d="M29 29 C29 28 29.9 27 31 27 C32.1 27 33 28 33 29 L33 35 C33 36.1 32.1 37 31 37 C29.9 37 29 36.1 29 35 L29 29"
    stroke="white" stroke-width="1.3" stroke-linecap="round" fill="none"/>
</svg>
